<svg xmlns="http://www.w3.org/2000/svg" width="128" height="128" viewBox="0 0 128 128">
  <defs>
    <linearGradient id="g" x1="0" x2="1" y1="0" y2="1">
      <stop offset="0" stop-color="#78aaff"/>
      <stop offset="1" stop-color="#ff78c8"/>
    </linearGradient>
  </defs>
  <rect x="10" y="10" width="108" height="108" rx="26" fill="url(#g)"/>
  <path d="M45 60c0-10 8-18 19-18s19 8 19 18v10h6c4 0 8 4 8 8v10c0 8-6 14-14 14H45c-8 0-14-6-14-14V78c0-4 4-8 8-8h6V60zm12 0v10h14V60c0-4-3-7-7-7s-7 3-7 7z"
        fill="rgba(15,18,32,0.92)"/>
</svg>

